<svg width="33" height="33" viewBox="0 0 33 33" fill="none" xmlns="http://www.w3.org/2000/svg">
<circle cx="16" cy="16" r="15" fill="#6699FF"/>
<g filter="url(#filter0_d_13_7)">
<path d="M19.4625 9.61905L18.0868 10.9947H11.3757V20.6243H21.0053V13.9132L22.381 12.5375V21.3122C22.381 21.4946 22.3085 21.6695 22.1795 21.7985C22.0505 21.9275 21.8755 22 21.6931 22H10.6878C10.5054 22 10.3305 21.9275 10.2015 21.7985C10.0725 21.6695 10 21.4946 10 21.3122V10.3069C10 10.1245 10.0725 9.9495 10.2015 9.82051C10.3305 9.69152 10.5054 9.61905 10.6878 9.61905H19.4625V9.61905ZM22.0267 9L23 9.97397L16.6775 16.2965L15.7062 16.2986L15.7049 15.3239L22.0267 9V9Z" fill="white"/>
</g>
<defs>
<filter id="filter0_d_13_7" x="0" y="0" width="33" height="33" filterUnits="userSpaceOnUse" color-interpolation-filters="sRGB">
<feFlood flood-opacity="0" result="BackgroundImageFix"/>
<feColorMatrix in="SourceAlpha" type="matrix" values="0 0 0 0 0 0 0 0 0 0 0 0 0 0 0 0 0 0 127 0" result="hardAlpha"/>
<feOffset dy="1"/>
<feGaussianBlur stdDeviation="5"/>
<feComposite in2="hardAlpha" operator="out"/>
<feColorMatrix type="matrix" values="0 0 0 0 0 0 0 0 0 0 0 0 0 0 0 0 0 0 0.33 0"/>
<feBlend mode="normal" in2="BackgroundImageFix" result="effect1_dropShadow_13_7"/>
<feBlend mode="normal" in="SourceGraphic" in2="effect1_dropShadow_13_7" result="shape"/>
</filter>
</defs>
</svg>
